<svg width="18" height="18" viewBox="0 0 18 18" fill="none" xmlns="http://www.w3.org/2000/svg">
<path d="M3.90174 2.077C5.96539 3.64106 8.18509 6.81232 9.00005 8.51421C9.81507 6.81245 12.0346 3.64103 14.0984 2.077C15.5874 0.948432 18 0.0752135 18 2.85384C18 3.40877 17.6848 7.51554 17.5 8.18226C16.8575 10.5002 14.5162 11.0914 12.4337 10.7336C16.074 11.3591 17 13.4309 15.0001 15.5028C11.2018 19.4376 9.54086 14.5155 9.11507 13.2543C9.03704 13.0231 9.00054 12.9149 9 13.0069C8.99946 12.9149 8.96295 13.0231 8.88493 13.2543C8.45933 14.5155 6.7984 19.4377 2.9999 15.5028C0.999925 13.4309 1.92596 11.359 5.56634 10.7336C3.48369 11.0914 1.1424 10.5002 0.499994 8.18226C0.315147 7.51548 0 3.40871 0 2.85384C0 0.0752135 2.41267 0.948432 3.90163 2.077H3.90174Z" fill="currentColor"/>
</svg>
