<svg width="12" height="12" viewBox="0 0 12 12" fill="none" xmlns="http://www.w3.org/2000/svg">
<path d="M5.99977 7.22917L1.97893 11.25C1.81227 11.4167 1.61088 11.4965 1.37477 11.4896C1.13865 11.4826 0.937266 11.3958 0.770599 11.2292C0.603932 11.0625 0.520599 10.8576 0.520599 10.6146C0.520599 10.3715 0.603932 10.1667 0.770599 10L4.7706 6L0.749766 1.97917C0.583099 1.8125 0.503238 1.60764 0.510182 1.36458C0.517127 1.12153 0.603932 0.916667 0.770599 0.75C0.937266 0.583333 1.14213 0.5 1.38518 0.5C1.62824 0.5 1.8331 0.583333 1.99977 0.75L5.99977 4.77083L10.0206 0.75C10.1873 0.583333 10.3921 0.5 10.6352 0.5C10.8782 0.5 11.0831 0.583333 11.2498 0.75C11.4164 0.916667 11.4998 1.12153 11.4998 1.36458C11.4998 1.60764 11.4164 1.8125 11.2498 1.97917L7.22893 6L11.2498 10.0208C11.4164 10.1875 11.4998 10.3889 11.4998 10.625C11.4998 10.8611 11.4164 11.0625 11.2498 11.2292C11.0831 11.3958 10.8782 11.4792 10.6352 11.4792C10.3921 11.4792 10.1873 11.3958 10.0206 11.2292L5.99977 7.22917Z" fill="currentColor"/>
</svg>
