<svg width="18" height="18" viewBox="0 0 18 18" fill="none" xmlns="http://www.w3.org/2000/svg">
<g clip-path="url(#clip0_3377_482)">
<path d="M15.2381 3.27036C14.0711 2.73439 12.8394 2.35207 11.574 2.13298C11.5625 2.13105 11.5508 2.13272 11.5403 2.13776C11.5298 2.14279 11.5211 2.15095 11.5155 2.16111C11.3569 2.44236 11.1814 2.81023 11.0587 3.09823C9.69479 2.89141 8.30745 2.89141 6.9435 3.09823C6.80729 2.77714 6.65253 2.46424 6.48 2.16111C6.47435 2.15095 6.46569 2.14279 6.45522 2.13776C6.44474 2.13272 6.43296 2.13105 6.4215 2.13298C5.15587 2.35123 3.924 2.73373 2.75737 3.27036C2.74734 3.27408 2.73897 3.28126 2.73375 3.29061C0.400499 6.77698 -0.239626 10.1779 0.0742493 13.536C0.0764993 13.5525 0.0843743 13.5664 0.0978743 13.5776C1.45684 14.5836 2.97649 15.352 4.59225 15.8501C4.60366 15.8537 4.61592 15.8536 4.62725 15.8497C4.63858 15.8459 4.64839 15.8385 4.65525 15.8287C5.0025 15.3562 5.30925 14.8579 5.5755 14.3336C5.58103 14.3228 5.58293 14.3105 5.5809 14.2986C5.57887 14.2866 5.57303 14.2756 5.56425 14.2672L5.544 14.2549C5.05953 14.0681 4.59014 13.8443 4.14 13.5855C4.12743 13.5784 4.11809 13.5667 4.1139 13.5529C4.10971 13.539 4.111 13.5241 4.1175 13.5112L4.13437 13.4899C4.22962 13.4186 4.32262 13.3455 4.41337 13.2705C4.42132 13.2641 4.43086 13.26 4.44097 13.2586C4.45108 13.2572 4.46137 13.2586 4.47075 13.2626C7.41712 14.6081 10.6065 14.6081 13.5169 13.2626C13.5265 13.2581 13.5373 13.2565 13.5478 13.2579C13.5584 13.2593 13.5683 13.2637 13.5765 13.2705C13.6672 13.3455 13.7602 13.4186 13.8555 13.4899C13.8634 13.4953 13.8698 13.5026 13.8741 13.5112C13.8784 13.5198 13.8804 13.5293 13.8799 13.5389C13.8795 13.5485 13.8766 13.5578 13.8715 13.566C13.8665 13.5741 13.8594 13.5808 13.851 13.5855C13.4028 13.8484 12.9327 14.072 12.4459 14.2537C12.4381 14.2565 12.4311 14.261 12.4252 14.2669C12.4194 14.2727 12.4149 14.2797 12.4121 14.2875C12.4094 14.295 12.4083 14.303 12.4089 14.3109C12.4094 14.3189 12.4117 14.3266 12.4155 14.3336C12.6855 14.8567 12.9949 15.3562 13.3346 15.8287C13.3415 15.8385 13.3513 15.8459 13.3626 15.8497C13.374 15.8536 13.3862 15.8537 13.3976 15.8501C15.0166 15.3547 16.5389 14.5862 17.8987 13.5776C17.9055 13.5728 17.9111 13.5666 17.9152 13.5594C17.9193 13.5522 17.9217 13.5442 17.9224 13.536C18.2981 9.65361 17.2935 6.28086 15.2606 3.29173C15.2589 3.28663 15.2559 3.28203 15.252 3.27831C15.2481 3.27459 15.2433 3.27186 15.2381 3.27036ZM6.01537 11.4907C5.12775 11.4907 4.39762 10.6762 4.39762 9.67723C4.39762 8.67823 5.11425 7.86261 6.01537 7.86261C6.92325 7.86261 7.64662 8.68386 7.63312 9.67723C7.63312 10.6762 6.9165 11.4907 6.01537 11.4907ZM11.9959 11.4907C11.1094 11.4907 10.3781 10.6762 10.3781 9.67723C10.3781 8.67823 11.0947 7.86261 11.9959 7.86261C12.9037 7.86261 13.6282 8.68386 13.6136 9.67723C13.6136 10.6762 12.9037 11.4907 11.9959 11.4907Z" fill="currentColor"/>
</g>
<defs>
<clipPath id="clip0_3377_482">
<rect width="18" height="18" fill="white"/>
</clipPath>
</defs>
</svg>
