<svg width="18" height="18" viewBox="0 0 18 18" fill="none" xmlns="http://www.w3.org/2000/svg">
<g clip-path="url(#clip0_3377_483)">
<path d="M18 9.05515C18 4.0534 13.9703 -0.00109863 9.00001 -0.00109863C4.02751 2.63672e-05 -0.00224304 4.0534 -0.00224304 9.05628C-0.00224304 13.5754 3.28951 17.3217 7.59151 18.0012V11.673H5.30776V9.05628H7.59376V7.0594C7.59376 4.79028 8.93813 3.53703 10.9935 3.53703C11.979 3.53703 13.0084 3.71365 13.0084 3.71365V5.94115H11.8733C10.7561 5.94115 10.4074 6.63978 10.4074 7.3564V9.05515H12.9026L12.5044 11.6719H10.4063V18C14.7083 17.3205 18 13.5743 18 9.05515Z" fill="currentColor"/>
</g>
<defs>
<clipPath id="clip0_3377_483">
<rect width="18" height="18" fill="white"/>
</clipPath>
</defs>
</svg>
