<svg width="384" height="384" viewBox="0 0 384 384" fill="none" xmlns="http://www.w3.org/2000/svg">
<path d="M215.41 382.5L228.866 340.336L229.118 339.546L229.922 339.34C243.809 335.767 257.117 330.239 269.448 322.921L270.163 322.497L270.901 322.878L310.256 343.164L343.24 310.146L322.929 270.8L322.548 270.062L322.972 269.347C330.279 257.013 335.793 243.702 339.347 229.813L339.553 229.01L340.343 228.757L382.5 215.275V168.595L340.353 155.147L339.562 154.896L339.356 154.093C335.784 140.206 330.255 126.897 322.937 114.566L322.513 113.853L322.894 113.114L343.18 73.7598L310.161 40.7588L270.814 61.0693L270.076 61.4502L269.362 61.0273C257.025 53.7198 243.71 48.2063 229.818 44.6523L229.015 44.4463L228.762 43.6553L215.288 1.5H168.607L155.151 43.6553L154.899 44.4453L154.096 44.6514L152.796 44.9922C139.378 48.5702 126.515 53.9799 114.569 61.0703L113.854 61.4941L113.116 61.1133L73.7607 40.8281L40.7588 73.8457L61.1055 113.19L61.4873 113.93L61.0635 114.645C53.7444 126.981 48.2152 140.296 44.6436 154.188L44.4375 154.991L43.6484 155.243L1.5 168.717L1.5 215.397L43.6738 228.853L44.4639 229.104L44.6699 229.908C48.2514 243.844 53.8036 257.197 61.1582 269.563L61.5859 270.283L61.1982 271.024L40.8125 310.025L73.6055 343.218L113.351 323.005L114.085 322.631L114.794 323.051C127.09 330.319 140.354 335.809 154.19 339.356L154.994 339.562L155.247 340.353L168.729 382.5H215.41ZM61.9189 179.646C64.9704 147.261 79.9921 117.18 104.046 95.2832C128.1 73.3861 159.456 61.2477 191.984 61.2422C224.513 61.2367 255.873 73.364 279.935 95.2529C303.996 117.142 319.027 147.218 322.09 179.602L322.245 181.243H256.764L256.531 180.023C253.65 164.902 245.582 151.26 233.72 141.448C221.858 131.637 206.945 126.27 191.551 126.275C176.157 126.28 161.246 131.656 149.391 141.476C137.535 151.295 129.477 164.943 126.605 180.066L126.374 181.286L61.7646 181.286L61.9189 179.646ZM191.591 237.14C182.75 237.145 174.106 234.529 166.752 229.622C159.398 224.715 153.665 217.737 150.276 209.571C146.888 201.406 145.997 192.419 147.717 183.747C149.436 175.075 153.689 167.108 159.937 160.853C166.184 154.598 174.147 150.335 182.816 148.605C191.486 146.876 200.475 147.756 208.645 151.134C216.814 154.512 223.799 160.237 228.715 167.585C233.631 174.933 236.258 183.573 236.264 192.414V192.415C236.257 204.265 231.549 215.629 223.175 224.014C214.801 232.398 203.443 237.118 191.593 237.14H191.591ZM236.331 314.979C213 323.381 187.76 324.972 163.559 319.563C139.358 314.155 117.196 301.972 99.6611 284.438L99.5361 284.312L99.4658 284.199C78.0058 262.794 64.7225 234.545 61.9277 204.36L61.7754 202.723L126.243 202.723L126.461 203.963C129.149 219.29 137.157 233.178 149.075 243.184C160.993 253.189 176.059 258.671 191.62 258.665C207.181 258.659 222.242 253.165 234.152 243.15C246.063 233.136 254.06 219.241 256.736 203.912L256.953 202.67H322.297L322.143 204.311C319.815 228.998 310.51 252.515 295.314 272.111C280.119 291.708 259.662 306.576 236.331 314.979Z" stroke="currentColor" stroke-width="3"/>
</svg>
