<svg width="32" height="32" viewBox="0 0 32 32" fill="none" xmlns="http://www.w3.org/2000/svg">
<path d="M26 16.0001C26 15.6934 25.9867 15.4001 25.96 15.0934L28.44 13.2134C28.9733 12.8134 29.12 12.0667 28.7867 11.4801L26.2933 7.17341C25.96 6.58675 25.24 6.34675 24.6267 6.61341L21.76 7.82675C21.2667 7.48008 20.7467 7.17341 20.2 6.92008L19.8133 3.84008C19.7333 3.17341 19.16 2.66675 18.4933 2.66675H13.52C12.84 2.66675 12.2667 3.17341 12.1867 3.84008L11.8 6.92008C11.2533 7.17341 10.7333 7.48008 10.24 7.82675L7.37333 6.61341C6.76 6.34675 6.04 6.58675 5.70667 7.17341L3.21333 11.4934C2.88 12.0801 3.02667 12.8134 3.56 13.2267L6.04 15.1067C6.01333 15.4001 6 15.6934 6 16.0001C6 16.3067 6.01333 16.6001 6.04 16.9067L3.56 18.7867C3.02667 19.1867 2.88 19.9334 3.21333 20.5201L5.70667 24.8267C6.04 25.4134 6.76 25.6534 7.37333 25.3867L10.24 24.1734C10.7333 24.5201 11.2533 24.8267 11.8 25.0801L12.1867 28.1601C12.2667 28.8267 12.84 29.3334 13.5067 29.3334H18.48C19.1467 29.3334 19.72 28.8267 19.8 28.1601L20.1867 25.0801C20.7333 24.8267 21.2533 24.5201 21.7467 24.1734L24.6133 25.3867C25.2267 25.6534 25.9467 25.4134 26.28 24.8267L28.7733 20.5201C29.1067 19.9334 28.96 19.2001 28.4267 18.7867L25.9467 16.9067C25.9867 16.6001 26 16.3067 26 16.0001ZM16.0533 20.6667C13.48 20.6667 11.3867 18.5734 11.3867 16.0001C11.3867 13.4267 13.48 11.3334 16.0533 11.3334C18.6267 11.3334 20.72 13.4267 20.72 16.0001C20.72 18.5734 18.6267 20.6667 16.0533 20.6667Z" fill="currentColor"/>
</svg>
