<svg width="18" height="18" viewBox="0 0 18 18" fill="none" xmlns="http://www.w3.org/2000/svg">
<g clip-path="url(#clip0_3379_234)">
<path d="M10 0H12.2275C12.3895 0.804375 12.835 1.81913 13.6169 2.826C14.3819 3.81263 15.3966 4.5 16.75 4.5V6.75C14.7779 6.75 13.2963 5.83425 12.25 4.69238V12.375C12.25 13.4875 11.9201 14.5751 11.302 15.5001C10.6839 16.4251 9.80543 17.1461 8.7776 17.5718C7.74976 17.9976 6.61876 18.109 5.52762 17.8919C4.43648 17.6749 3.4342 17.1391 2.64753 16.3525C1.86086 15.5658 1.32513 14.5635 1.10809 13.4724C0.891043 12.3812 1.00244 11.2502 1.42818 10.2224C1.85392 9.19457 2.57489 8.31607 3.49992 7.69798C4.42495 7.0799 5.51248 6.75 6.625 6.75V9C5.95749 9 5.30497 9.19794 4.74995 9.56879C4.19494 9.93964 3.76235 10.4667 3.50691 11.0834C3.25146 11.7001 3.18463 12.3787 3.31485 13.0334C3.44508 13.6881 3.76651 14.2895 4.23852 14.7615C4.71052 15.2335 5.31189 15.5549 5.96657 15.6852C6.62126 15.8154 7.29986 15.7485 7.91656 15.4931C8.53326 15.2376 9.06036 14.8051 9.43121 14.25C9.80206 13.695 10 13.0425 10 12.375V0Z" fill="currentColor"/>
</g>
<defs>
<clipPath id="clip0_3379_234">
<rect width="18" height="18" fill="white"/>
</clipPath>
</defs>
</svg>
