<svg width="18" height="18" viewBox="0 0 18 18" fill="currentColor" xmlns="http://www.w3.org/2000/svg">
<path d="M18 10.1485V7.85764L15.975 7.21006C15.8068 6.55258 15.5457 5.9224 15.1998 5.33852L16.1755 3.44856L14.5567 1.82819L12.6663 2.80262C12.0825 2.45618 11.4525 2.19448 10.7951 2.02536L10.1487 0H7.85782L7.21023 2.02454C6.55521 2.19249 5.92729 2.45238 5.34518 2.79648L3.43636 1.82573L1.827 3.45469L2.80636 5.32829C2.4582 5.91373 2.19537 6.54586 2.02582 7.20556L0 7.85191V10.1428L2.02459 10.7899C2.19367 11.4476 2.45538 12.0779 2.80186 12.6619L1.82455 14.5519L3.44414 16.1722L5.33455 15.1978C5.91827 15.5443 6.5483 15.806 7.20573 15.975L7.85209 18H10.143L10.7902 15.975C11.4478 15.8068 12.0781 15.5458 12.6622 15.1998L14.5522 16.1755L16.1726 14.5559L15.1981 12.6656C15.5446 12.0818 15.8063 11.4518 15.9754 10.7944L18 10.1485ZM4.72132 4.71671C5.53381 3.90421 6.56075 3.33969 7.68215 3.0891C8.80354 2.8385 9.9731 2.91218 11.0542 3.30154C12.1353 3.69089 13.0832 4.37983 13.7873 5.28788C14.4914 6.19592 14.9226 7.28558 15.0304 8.42954H12.1038C11.9755 7.69468 11.5921 7.02862 11.0211 6.54852C10.4502 6.06843 9.7282 5.80507 8.98221 5.80478C8.23623 5.80448 7.51403 6.06728 6.94269 6.54692C6.37135 7.02656 5.98747 7.69233 5.85859 8.42708H2.97286C3.10261 7.02577 3.72026 5.71449 4.71805 4.72203L4.72132 4.71671ZM11.0045 8.98057C11.0043 9.38107 10.8853 9.7725 10.6626 10.1054C10.4399 10.4382 10.1235 10.6976 9.75335 10.8506C9.38323 11.0037 8.97605 11.0435 8.58328 10.9651C8.19052 10.8868 7.82982 10.6937 7.54679 10.4103C7.26376 10.127 7.07111 9.76604 6.99322 9.37319C6.91532 8.98034 6.95567 8.57321 7.10916 8.20329C7.26265 7.83337 7.52239 7.51728 7.85554 7.29497C8.18868 7.07267 8.58027 6.95414 8.98077 6.95439C9.51764 6.95536 10.0322 7.16923 10.4116 7.54907C10.791 7.92891 11.0042 8.44372 11.0045 8.98057ZM5.86555 9.57251C6.00321 10.2975 6.38951 10.9518 6.95784 11.4225C7.52618 11.8932 8.24094 12.1509 8.9789 12.1511C9.71687 12.1514 10.4318 11.8942 11.0004 11.4238C11.5691 10.9535 11.9558 10.2995 12.094 9.57456H15.028C14.8861 11.0751 14.1895 12.4687 13.0746 13.483C11.9597 14.4973 10.5065 15.0592 8.99927 15.059C7.49201 15.0587 6.03904 14.4963 4.92446 13.4816C3.80988 12.467 3.11385 11.0731 2.97245 9.57251H5.86555Z" fill="currentColor"/>
</svg>
