<svg width="18" height="18" viewBox="0 0 18 18" fill="none" xmlns="http://www.w3.org/2000/svg">
<path d="M9.05737 3H9.1575C10.0823 3.00338 14.7679 3.03713 16.0312 3.37688C16.4132 3.48056 16.7612 3.68268 17.0406 3.96301C17.3199 4.24334 17.5208 4.59208 17.6231 4.97438C17.7367 5.40188 17.8166 5.96775 17.8706 6.55163L17.8819 6.66863L17.9066 6.96113L17.9156 7.07813C17.9888 8.10638 17.9977 9.06938 17.9989 9.27975V9.36413C17.9977 9.58238 17.9876 10.6106 17.9066 11.6816L17.8976 11.7998L17.8875 11.9168C17.8312 12.5603 17.748 13.1993 17.6231 13.6695C17.5208 14.0518 17.3199 14.4005 17.0406 14.6809C16.7612 14.9612 16.4132 15.1633 16.0312 15.267C14.7263 15.618 9.76612 15.6428 9.07875 15.6439H8.919C8.57137 15.6439 7.13362 15.6371 5.62612 15.5854L5.43487 15.5786L5.337 15.5741L5.14462 15.5663L4.95225 15.5584C3.7035 15.5033 2.51438 15.4144 1.9665 15.2659C1.58471 15.1623 1.23677 14.9603 0.957432 14.6802C0.678097 14.4001 0.477139 14.0516 0.374625 13.6695C0.24975 13.2004 0.1665 12.5603 0.11025 11.9168L0.10125 11.7986L0.09225 11.6816C0.0364088 10.9193 0.00564223 10.1554 0 9.39113L0 9.25275C0.00225 9.01088 0.01125 8.175 0.072 7.2525L0.079875 7.13663L0.08325 7.07813L0.09225 6.96113L0.117 6.66863L0.12825 6.55163C0.18225 5.96775 0.262125 5.40075 0.37575 4.97438C0.478092 4.59208 0.678974 4.24334 0.95832 3.96301C1.23767 3.68268 1.5857 3.48056 1.96762 3.37688C2.5155 3.23063 3.70462 3.14062 4.95337 3.08437L5.14462 3.0765L5.33812 3.06975L5.43487 3.06638L5.62725 3.0585C6.69792 3.02408 7.76903 3.00495 8.84025 3.00113L9.05737 3ZM7.2 6.61125V12.0315L11.8766 9.3225L7.2 6.61125Z" fill="currentColor"/>
</svg>
